<svg xmlns="http://www.w3.org/2000/svg" viewBox="0 0 805 600"><g id="viz"><g transform="translate(0,0)"><g transform="translate(50,20)"><g class="bars"><rect id="undefined - Aprueban" x="47.83678601333706" y="536" height="24" width="24.967642183947646" fill="#1f77b4"/><rect id="undefined - Reprueban" x="73.78586829867211" y="352" height="208" width="24.967642183947646" fill="#ff380e"/><rect id="undefined - Aprueban" x="147.57173659734426" y="480.00000000000006" height="79.99999999999994" width="24.967642183947646" fill="#1f77b4"/><rect id="undefined - Reprueban" x="173.52081888267932" y="288" height="272" width="24.967642183947646" fill="#ff380e"/><rect id="undefined - Aprueban" x="247.30668718135144" y="472" height="88" width="24.967642183947646" fill="#1f77b4"/><rect id="undefined - Reprueban" x="273.2557694666865" y="88" height="472" width="24.967642183947646" fill="#ff380e"/><rect id="undefined - Aprueban" x="347.04163776535864" y="400" height="160" width="24.967642183947646" fill="#1f77b4"/><rect id="undefined - Reprueban" x="372.99072005069365" y="184.00000000000003" height="376" width="24.967642183947646" fill="#ff380e"/><rect id="undefined - Aprueban" x="446.77658834936585" y="120.00000000000001" height="440" width="24.967642183947646" fill="#1f77b4"/><rect id="undefined - Reprueban" x="472.72567063470086" y="215.99999999999997" height="344" width="24.967642183947646" fill="#ff380e"/><rect id="undefined - Aprueban" x="546.5115389333731" y="248" height="312" width="24.967642183947646" fill="#1f77b4"/><rect id="undefined - Reprueban" x="572.4606212187082" y="392" height="168" width="24.967642183947646" fill="#ff380e"/><rect id="undefined - Aprueban" x="646.2464895173802" y="7.999999999999972" height="552" width="24.967642183947646" fill="#1f77b4"/><rect id="undefined - Reprueban" x="672.1955718027152" y="152.00000000000003" height="408" width="24.967642183947646" fill="#ff380e"/></g><g id="xAxis" transform="translate(0,560)" fill="none" font-size="10" font-family="sans-serif" text-anchor="middle"><path class="domain" stroke="currentColor" d="M0.5,0.5H745.5"/><g class="tick" opacity="1" transform="translate(73.2951482479784,0)"><line stroke="currentColor" y2="6"/><text fill="currentColor" y="9" dy="0.71em">2021-2</text></g><g class="tick" opacity="1" transform="translate(173.0300988319856,0)"><line stroke="currentColor" y2="6"/><text fill="currentColor" y="9" dy="0.71em">2022-1</text></g><g class="tick" opacity="1" transform="translate(272.7650494159928,0)"><line stroke="currentColor" y2="6"/><text fill="currentColor" y="9" dy="0.71em">2022-2</text></g><g class="tick" opacity="1" transform="translate(372.5,0)"><line stroke="currentColor" y2="6"/><text fill="currentColor" y="9" dy="0.71em">2023-1</text></g><g class="tick" opacity="1" transform="translate(472.2349505840072,0)"><line stroke="currentColor" y2="6"/><text fill="currentColor" y="9" dy="0.71em">2023-2</text></g><g class="tick" opacity="1" transform="translate(571.9699011680144,0)"><line stroke="currentColor" y2="6"/><text fill="currentColor" y="9" dy="0.71em">2024-1</text></g><g class="tick" opacity="1" transform="translate(671.7048517520215,0)"><line stroke="currentColor" y2="6"/><text fill="currentColor" y="9" dy="0.71em">2024-2</text></g></g><g id="yAxis" fill="none" font-size="10" font-family="sans-serif" text-anchor="end"><path class="domain" stroke="currentColor" d="M0.5,560.5V0.5"/><g class="tick" opacity="1" transform="translate(0,560.5)"><line stroke="currentColor" x2="-6"/><text fill="currentColor" x="-9" dy="0.32em">0</text></g><g class="tick" opacity="1" transform="translate(0,520.5)"><line stroke="currentColor" x2="-6"/><text fill="currentColor" x="-9" dy="0.32em">5</text></g><g class="tick" opacity="1" transform="translate(0,480.50000000000006)"><line stroke="currentColor" x2="-6"/><text fill="currentColor" x="-9" dy="0.32em">10</text></g><g class="tick" opacity="1" transform="translate(0,440.5)"><line stroke="currentColor" x2="-6"/><text fill="currentColor" x="-9" dy="0.32em">15</text></g><g class="tick" opacity="1" transform="translate(0,400.5)"><line stroke="currentColor" x2="-6"/><text fill="currentColor" x="-9" dy="0.32em">20</text></g><g class="tick" opacity="1" transform="translate(0,360.49999999999994)"><line stroke="currentColor" x2="-6"/><text fill="currentColor" x="-9" dy="0.32em">25</text></g><g class="tick" opacity="1" transform="translate(0,320.5)"><line stroke="currentColor" x2="-6"/><text fill="currentColor" x="-9" dy="0.32em">30</text></g><g class="tick" opacity="1" transform="translate(0,280.5)"><line stroke="currentColor" x2="-6"/><text fill="currentColor" x="-9" dy="0.32em">35</text></g><g class="tick" opacity="1" transform="translate(0,240.50000000000003)"><line stroke="currentColor" x2="-6"/><text fill="currentColor" x="-9" dy="0.32em">40</text></g><g class="tick" opacity="1" transform="translate(0,200.49999999999997)"><line stroke="currentColor" x2="-6"/><text fill="currentColor" x="-9" dy="0.32em">45</text></g><g class="tick" opacity="1" transform="translate(0,160.5)"><line stroke="currentColor" x2="-6"/><text fill="currentColor" x="-9" dy="0.32em">50</text></g><g class="tick" opacity="1" transform="translate(0,120.50000000000001)"><line stroke="currentColor" x2="-6"/><text fill="currentColor" x="-9" dy="0.32em">55</text></g><g class="tick" opacity="1" transform="translate(0,80.50000000000003)"><line stroke="currentColor" x2="-6"/><text fill="currentColor" x="-9" dy="0.32em">60</text></g><g class="tick" opacity="1" transform="translate(0,40.499999999999986)"><line stroke="currentColor" x2="-6"/><text fill="currentColor" x="-9" dy="0.32em">65</text></g><g class="tick" opacity="1" transform="translate(0,0.5)"><line stroke="currentColor" x2="-6"/><text fill="currentColor" x="-9" dy="0.32em">70</text></g></g></g><text x="4" y="4" style="font-family: Arial, sans-serif; font-size: 12px; fill: black; font-weight: bold; dominant-baseline: hanging;"/></g><g id="grid"></g></g></svg>